<svg viewBox="0 0 20 20" xmlns="http://www.w3.org/2000/svg">
<g fill="none" fill-rule="evenodd">
<g transform="translate(-340 -7439)" fill="#323232">
<g transform="translate(56 160)">
<path d="m289.87 7279.1c-1.6279 0.07345-3.0388 0.47147-4.1782 1.606-1.1433 1.1405-1.5363 2.5569-1.61 4.1678-0.045772 1.0055-0.31344 8.6016 0.46269 10.594 0.52339 1.3439 1.5542 2.3772 2.9105 2.9023 0.63284 0.24616 1.3552 0.41291 2.415 0.46155 8.8608 0.401 12.145 0.18263 13.531-3.3638 0.24577-0.63128 0.41493-1.3529 0.4617-2.41 0.40498-8.8835-0.065673-10.809-1.61-12.352-1.2249-1.2219-2.6657-2.0536-12.382-1.606m0.081593 17.945c-0.97016-0.04368-1.4965-0.20547-1.8478-0.34145-0.88359-0.34343-1.5473-1.0045-1.8886-1.8829-0.59105-1.5137-0.39503-8.7029-0.34229-9.8662 0.051742-1.1395 0.28259-2.1807 1.0866-2.9847 0.99504-0.99258 2.2806-1.4789 11.034-1.0839 1.1423 0.05161 2.1861 0.28189 2.9921 1.0839 0.99504 0.99257 1.4886 2.2879 1.0866 11.008-0.043782 0.96776-0.20597 1.4928-0.34229 1.8432-0.90051 2.3077-2.9722 2.6283-11.778 2.2244m8.1384-13.378c0 0.65709 0.53434 1.1911 1.194 1.1911 0.65971 0 1.195-0.534 1.195-1.1911 0-0.65708-0.53533-1.1911-1.195-1.1911-0.65971 0-1.194 0.53401-1.194 1.1911m-9.227 5.2984c0 2.8149 2.2876 5.0969 5.1095 5.0969 2.8219 0 5.1095-2.2819 5.1095-5.0969s-2.2876-5.0959-5.1095-5.0959c-2.8219 0-5.1095 2.2809-5.1095 5.0959m1.7931 0c0-1.8263 1.4846-3.3082 3.3165-3.3082 1.8319 0 3.3165 1.4819 3.3165 3.3082 0 1.8273-1.4846 3.3092-3.3165 3.3092-1.8319 0-3.3165-1.4819-3.3165-3.3092"/>
</g>
</g>
</g>
</svg>
