<svg xmlns="http://www.w3.org/2000/svg" xmlns:xlink="http://www.w3.org/1999/xlink" width="500" zoomAndPan="magnify" viewBox="0 0 375 374.999991" height="500" preserveAspectRatio="xMidYMid meet" version="1.0"><defs><clipPath id="bceeca5e03"><path d="M 50 50.3125 L 196 50.3125 L 196 168 L 50 168 Z M 50 50.3125 " clip-rule="nonzero"/></clipPath><clipPath id="3415a710bb"><path d="M 52 50.3125 L 151 50.3125 L 151 71 L 52 71 Z M 52 50.3125 " clip-rule="nonzero"/></clipPath><clipPath id="6847a8004a"><path d="M 64 50.3125 L 157 50.3125 L 157 75 L 64 75 Z M 64 50.3125 " clip-rule="nonzero"/></clipPath><clipPath id="7a2ea3d693"><path d="M 243.265625 129.898438 L 375 129.898438 L 375 319.046875 L 243.265625 319.046875 Z M 243.265625 129.898438 " clip-rule="nonzero"/></clipPath><clipPath id="c2b7ce63f8"><path d="M 245.710938 130.386719 L 375 130.386719 L 375 299.074219 L 245.710938 299.074219 Z M 245.710938 130.386719 " clip-rule="nonzero"/></clipPath><clipPath id="b84ed3e0ac"><path d="M 253.636719 131.070312 L 375 131.070312 L 375 173.660156 L 253.636719 173.660156 Z M 253.636719 131.070312 " clip-rule="nonzero"/></clipPath><clipPath id="49a798844f"><path d="M 249.722656 131 L 375 131 L 375 251.886719 L 249.722656 251.886719 Z M 249.722656 131 " clip-rule="nonzero"/></clipPath></defs><path fill="#768995" d="M 257.027344 252.988281 C 257.027344 252.988281 247.3125 244.753906 239.125 198.605469 C 230.933594 152.457031 242.351562 127.511719 246.769531 131.339844 C 251.183594 135.164062 263.113281 237.585938 257.027344 252.988281 " fill-opacity="1" fill-rule="nonzero"/><path fill="#ff976d" d="M 178.144531 96.476562 C 178.144531 96.476562 192.976562 111.707031 218.300781 123.761719 C 249.96875 138.84375 340.605469 168.710938 347.25 176.761719 C 350.472656 180.667969 352.703125 191.921875 352.46875 201.179688 C 350.488281 279.386719 336.957031 277.941406 336.957031 277.941406 C 336.957031 277.941406 212.628906 192.910156 187.96875 194.257812 C 103.332031 198.875 81.722656 187.261719 81.722656 187.261719 C 81.722656 187.261719 136.621094 77.167969 178.144531 96.476562 " fill-opacity="1" fill-rule="nonzero"/><path fill="#ff7354" d="M 69.246094 182.574219 C 69.246094 182.574219 80.992188 187.417969 89.929688 189.96875 C 99.058594 192.578125 92.71875 168.78125 92.71875 168.78125 C 92.71875 168.78125 62.230469 154.597656 69.246094 182.574219 " fill-opacity="1" fill-rule="nonzero"/><path fill="#ff8155" d="M 135.640625 195.113281 C 135.640625 195.113281 163.429688 195.085938 187.96875 194.257812 C 212.507812 193.429688 333.996094 278.148438 336.753906 279.25 C 339.511719 280.355469 241.714844 147.316406 243.644531 134.457031 C 243.644531 134.457031 248.550781 168.335938 244.71875 204.902344 C 243.40625 217.425781 241.769531 206.570312 213.328125 196.285156 C 198.449219 190.90625 196.855469 189.515625 190.902344 188.863281 C 190.902344 188.863281 184.554688 188.691406 178.664062 190.519531 C 168.386719 193.710938 167.152344 190.492188 169.632812 185.546875 C 172.113281 180.601562 135.640625 195.113281 135.640625 195.113281 " fill-opacity="1" fill-rule="nonzero"/><path fill="#ff8155" d="M 171.160156 191.519531 C 144.882812 199.105469 90.609375 191.097656 85.8125 188.707031 C 83.292969 187.449219 88.378906 172.9375 81.710938 167.0625 C 76.648438 162.59375 74.085938 161.976562 74.085938 161.976562 L 67.878906 84.707031 C 67.878906 84.707031 120.261719 90.128906 128.660156 95.402344 C 134.589844 99.125 161.234375 145.289062 186.988281 158.449219 C 192.734375 161.382812 183.964844 187.820312 171.160156 191.519531 " fill-opacity="1" fill-rule="nonzero"/><path fill="#ff976d" d="M 62.878906 84.617188 C 62.878906 84.617188 80.390625 84.496094 109.121094 90.5 C 119.667969 92.703125 114.722656 111.296875 139.292969 147.445312 C 158.976562 176.410156 180.902344 167.207031 181.304688 173.027344 C 182.378906 188.683594 157.390625 197.59375 137.597656 189.105469 C 115.121094 179.46875 89.949219 186.578125 78.804688 180.46875 C 69.730469 175.492188 43.203125 85.113281 62.878906 84.617188 " fill-opacity="1" fill-rule="nonzero"/><path fill="#ed9062" d="M 73 181.125 C 73 181.125 90.980469 190.203125 121.007812 192.410156 C 151.03125 194.613281 170.257812 192.167969 171.285156 185.433594 C 172.3125 178.703125 170.726562 179.078125 170.726562 179.078125 C 170.726562 179.078125 162.894531 182.34375 138.800781 181.871094 C 114.707031 181.398438 85.328125 177.675781 85.328125 177.675781 C 85.328125 177.675781 75.570312 179.367188 73 181.125 " fill-opacity="1" fill-rule="nonzero"/><path fill="#ff8155" d="M 107.84375 111.820312 C 107.84375 111.820312 113.097656 145.433594 137.597656 166.359375 C 137.597656 166.359375 115.671875 138.242188 110.925781 111.820312 C 110.925781 111.820312 107.933594 106.136719 107.84375 111.820312 " fill-opacity="1" fill-rule="nonzero"/><path fill="#fba371" d="M 81.523438 86.558594 C 83.175781 86.328125 65.914062 84.195312 44.78125 83.96875 C 39.765625 83.917969 29.652344 80.894531 24.421875 85.078125 C 11.800781 95.191406 19.25 110.917969 24.933594 110.214844 C 30.617188 109.511719 32.632812 108.90625 41.5 109.292969 C 54.632812 109.867188 82.71875 118.714844 82.71875 118.714844 C 82.71875 118.714844 94.476562 93.503906 81.523438 86.558594 " fill-opacity="1" fill-rule="nonzero"/><path fill="#ff976d" d="M 58.074219 84.398438 C 58.074219 84.398438 58.074219 94.570312 49.523438 108.25 L 40.96875 107.226562 L 47.785156 84.066406 L 58.074219 84.398438 " fill-opacity="1" fill-rule="nonzero"/><path fill="#d37e5c" d="M 95.027344 178.785156 C 92.1875 178.484375 89.84375 178.21875 88.175781 178.019531 C 91.46875 176.863281 94.902344 175.605469 98.140625 174.367188 C 97.953125 175.035156 97.851562 175.738281 97.851562 176.464844 C 97.851562 177.046875 97.914062 177.613281 98.039062 178.160156 C 97.035156 178.382812 96.027344 178.589844 95.027344 178.785156 M 112.253906 172.972656 C 111.125 170.78125 108.964844 169.210938 106.417969 168.894531 C 106.46875 168.472656 106.519531 168.050781 106.574219 167.632812 C 106.980469 167.699219 107.398438 167.734375 107.828125 167.734375 C 110.320312 167.734375 112.53125 166.535156 113.925781 164.683594 C 114.640625 166.472656 114.921875 168.351562 114.429688 170.203125 C 114.164062 171.199219 113.394531 172.125 112.253906 172.972656 M 102.285156 154.863281 C 101.25 154.179688 100.035156 153.753906 98.617188 153.71875 C 98.140625 153.710938 97.59375 153.703125 96.988281 153.703125 C 95.085938 153.703125 92.585938 153.765625 89.785156 153.925781 C 91.957031 153.519531 93.992188 153.078125 95.796875 152.609375 C 97.207031 152.242188 98.714844 151.570312 100.066406 150.621094 C 101.222656 151.332031 102.585938 151.738281 104.039062 151.738281 C 104.1875 151.738281 104.335938 151.734375 104.480469 151.726562 C 104.503906 152.222656 104.519531 152.722656 104.527344 153.226562 C 103.683594 153.632812 102.925781 154.191406 102.285156 154.863281 M 108.265625 152.488281 C 108.117188 152.484375 107.972656 152.476562 107.828125 152.476562 C 107.734375 152.476562 107.648438 152.480469 107.558594 152.484375 C 107.542969 151.957031 107.519531 151.4375 107.488281 150.917969 C 109.96875 149.65625 111.667969 147.085938 111.667969 144.109375 C 111.667969 139.898438 108.253906 136.484375 104.039062 136.484375 C 103.886719 136.484375 103.734375 136.488281 103.582031 136.496094 C 103.195312 135.667969 102.792969 134.839844 102.378906 134.003906 C 104.097656 132.609375 105.199219 130.472656 105.199219 128.082031 C 108.34375 129.097656 113.613281 131.257812 114.609375 139.03125 C 115.601562 146.75 111.507812 150.644531 108.265625 152.488281 M 91.472656 132.65625 C 89.277344 132.394531 86.5 132.15625 83.4375 132.003906 C 85.863281 131.480469 88.171875 130.898438 90.265625 130.265625 C 90.527344 131.136719 90.9375 131.945312 91.472656 132.65625 M 104.371094 124.621094 C 103.292969 122.503906 101.253906 120.957031 98.828125 120.558594 C 98.863281 119.863281 98.8125 119.191406 98.667969 118.578125 C 97.867188 115.253906 95.375 113.054688 91.472656 111.578125 C 91.511719 111.265625 91.53125 110.949219 91.53125 110.628906 C 91.53125 108.890625 90.949219 107.289062 89.972656 106.007812 C 95.625 106.652344 100.871094 108.109375 103.339844 111.101562 C 107.429688 116.046875 105.976562 121.539062 104.371094 124.621094 " fill-opacity="1" fill-rule="nonzero"/><path fill="#c57853" d="M 78.871094 181.125 C 81.582031 180.28125 84.804688 179.203125 88.171875 178.019531 C 89.84375 178.21875 92.1875 178.484375 95.027344 178.789062 C 86.707031 180.414062 78.878906 181.125 78.871094 181.125 " fill-opacity="1" fill-rule="nonzero"/><path fill="#d0885f" d="M 76.707031 108.109375 C 76.152344 107.984375 75.589844 107.863281 75.015625 107.738281 C 75.191406 107.515625 75.355469 107.277344 75.503906 107.03125 C 75.980469 107.253906 76.445312 107.460938 76.886719 107.648438 C 76.820312 107.800781 76.761719 107.953125 76.707031 108.109375 " fill-opacity="1" fill-rule="nonzero"/><path fill="#fcb58d" d="M 64.945312 84.617188 C 64.945312 84.617188 65.007812 89.964844 76.996094 92.230469 C 88.980469 94.496094 111.300781 96.15625 111.300781 96.15625 C 111.300781 96.15625 112.667969 92.433594 108.222656 90.316406 C 103.78125 88.195312 70.492188 84.4375 64.945312 84.617188 " fill-opacity="1" fill-rule="nonzero"/><path fill="#a79486" d="M 24.078125 81.5 C 24.039062 81.515625 20.484375 82.949219 16.910156 87.148438 C 12.160156 92.722656 9.515625 100.652344 9.25 110.074219 C 8.574219 134.445312 18.046875 160.402344 27.300781 172.453125 C 37.1875 185.328125 42.105469 199.671875 45.945312 213.261719 C 46.171875 214.066406 46.402344 214.890625 46.636719 215.730469 C 50.023438 227.839844 54.664062 244.429688 63.863281 249.832031 C 67.859375 252.179688 75.707031 255.800781 83.304688 253.65625 C 88.03125 252.324219 91.875 248.925781 94.738281 243.558594 C 103.941406 226.308594 103.136719 204.851562 101.839844 193.59375 C 101.058594 186.832031 102.066406 178.941406 103.042969 171.3125 C 104.425781 160.496094 105.851562 149.308594 102.320312 141.109375 C 99.320312 134.132812 94.929688 126.210938 90.582031 119.921875 C 86.199219 113.582031 82.238281 109.417969 79.980469 108.789062 C 74.222656 107.179688 58.335938 98.105469 53.6875 93.289062 C 52.890625 92.464844 52.09375 91.355469 51.171875 90.074219 C 46.820312 84.039062 40.246094 74.917969 24.097656 81.492188 L 24.078125 81.5 M 78.449219 257.355469 C 71.824219 257.355469 65.769531 254.480469 62.320312 252.457031 C 52.0625 246.433594 47.429688 229.863281 43.707031 216.550781 C 43.472656 215.710938 43.242188 214.890625 43.015625 214.089844 C 39.257812 200.792969 34.460938 186.777344 24.886719 174.308594 C 19.722656 167.585938 14.972656 157.671875 11.511719 146.390625 C 7.722656 134.046875 5.890625 121.460938 6.207031 109.992188 C 6.566406 97.082031 11.039062 89.285156 14.726562 85.015625 C 18.703125 80.414062 22.628906 78.800781 22.960938 78.667969 C 30.886719 75.441406 37.792969 75.339844 43.496094 78.359375 C 48.324219 80.914062 51.394531 85.179688 53.640625 88.292969 C 54.496094 89.480469 55.234375 90.507812 55.875 91.171875 C 60.078125 95.527344 75.597656 104.402344 80.800781 105.855469 C 87.273438 107.664062 98.808594 125.25 105.117188 139.902344 C 108.976562 148.871094 107.496094 160.472656 106.0625 171.695312 C 105.066406 179.488281 104.125 186.851562 104.863281 193.246094 C 106.203125 204.851562 107.015625 227.011719 97.425781 244.996094 C 94.15625 251.121094 89.683594 255.019531 84.132812 256.585938 C 82.222656 257.125 80.3125 257.351562 78.449219 257.355469 " fill-opacity="1" fill-rule="nonzero"/><path fill="#965e3d" d="M 19.140625 92.917969 C 19.140625 97.132812 15.726562 100.546875 11.515625 100.546875 C 7.304688 100.546875 3.890625 97.132812 3.890625 92.917969 C 3.890625 88.707031 7.304688 85.289062 11.515625 85.289062 C 15.726562 85.289062 19.140625 88.707031 19.140625 92.917969 " fill-opacity="1" fill-rule="nonzero"/><path fill="#ad6d41" d="M 17.90625 91.949219 C 17.90625 95.535156 15 98.445312 11.414062 98.445312 C 7.828125 98.445312 4.921875 95.535156 4.921875 91.949219 C 4.921875 88.359375 7.828125 85.449219 11.414062 85.449219 C 15 85.449219 17.90625 88.359375 17.90625 91.949219 " fill-opacity="1" fill-rule="nonzero"/><path fill="#bf8756" d="M 15.347656 89.53125 C 15.347656 91.589844 13.679688 93.257812 11.621094 93.257812 C 9.566406 93.257812 7.898438 91.589844 7.898438 89.53125 C 7.898438 87.472656 9.566406 85.804688 11.621094 85.804688 C 13.679688 85.804688 15.347656 87.472656 15.347656 89.53125 " fill-opacity="1" fill-rule="nonzero"/><path fill="#965e3d" d="M 15.246094 109.691406 C 15.246094 113.90625 11.832031 117.320312 7.621094 117.320312 C 3.410156 117.320312 -0.00390625 113.90625 -0.00390625 109.691406 C -0.00390625 105.480469 3.410156 102.066406 7.621094 102.066406 C 11.832031 102.066406 15.246094 105.480469 15.246094 109.691406 " fill-opacity="1" fill-rule="nonzero"/><path fill="#ad6d41" d="M 14.015625 108.722656 C 14.015625 112.3125 11.109375 115.21875 7.523438 115.21875 C 3.933594 115.21875 1.027344 112.3125 1.027344 108.722656 C 1.027344 105.136719 3.933594 102.226562 7.523438 102.226562 C 11.109375 102.226562 14.015625 105.136719 14.015625 108.722656 " fill-opacity="1" fill-rule="nonzero"/><path fill="#bf8756" d="M 11.453125 106.308594 C 11.453125 108.367188 9.785156 110.03125 7.730469 110.03125 C 5.671875 110.03125 4.003906 108.367188 4.003906 106.308594 C 4.003906 104.25 5.671875 102.578125 7.730469 102.578125 C 9.785156 102.578125 11.453125 104.25 11.453125 106.308594 " fill-opacity="1" fill-rule="nonzero"/><path fill="#965e3d" d="M 16.589844 126.765625 C 16.589844 130.980469 13.175781 134.394531 8.964844 134.394531 C 4.753906 134.394531 1.339844 130.980469 1.339844 126.765625 C 1.339844 122.550781 4.753906 119.136719 8.964844 119.136719 C 13.175781 119.136719 16.589844 122.550781 16.589844 126.765625 " fill-opacity="1" fill-rule="nonzero"/><path fill="#ad6d41" d="M 15.355469 125.796875 C 15.355469 129.382812 12.449219 132.292969 8.863281 132.292969 C 5.277344 132.292969 2.371094 129.382812 2.371094 125.796875 C 2.371094 122.207031 5.277344 119.300781 8.863281 119.300781 C 12.449219 119.300781 15.355469 122.207031 15.355469 125.796875 " fill-opacity="1" fill-rule="nonzero"/><path fill="#bf8756" d="M 12.796875 123.382812 C 12.796875 125.4375 11.128906 127.105469 9.070312 127.105469 C 7.015625 127.105469 5.347656 125.4375 5.347656 123.382812 C 5.347656 121.320312 7.015625 119.652344 9.070312 119.652344 C 11.128906 119.652344 12.796875 121.320312 12.796875 123.382812 " fill-opacity="1" fill-rule="nonzero"/><path fill="#965e3d" d="M 19.664062 144.207031 C 19.664062 148.417969 16.25 151.835938 12.039062 151.835938 C 7.828125 151.835938 4.414062 148.417969 4.414062 144.207031 C 4.414062 139.996094 7.828125 136.578125 12.039062 136.578125 C 16.25 136.578125 19.664062 139.996094 19.664062 144.207031 " fill-opacity="1" fill-rule="nonzero"/><path fill="#ad6d41" d="M 18.433594 143.238281 C 18.433594 146.824219 15.527344 149.734375 11.941406 149.734375 C 8.355469 149.734375 5.449219 146.824219 5.449219 143.238281 C 5.449219 139.648438 8.355469 136.742188 11.941406 136.742188 C 15.527344 136.742188 18.433594 139.648438 18.433594 143.238281 " fill-opacity="1" fill-rule="nonzero"/><path fill="#bf8756" d="M 15.875 140.820312 C 15.875 142.878906 14.207031 144.546875 12.148438 144.546875 C 10.089844 144.546875 8.421875 142.878906 8.421875 140.820312 C 8.421875 138.765625 10.089844 137.09375 12.148438 137.09375 C 14.207031 137.09375 15.875 138.765625 15.875 140.820312 " fill-opacity="1" fill-rule="nonzero"/><path fill="#965e3d" d="M 25.90625 159.671875 C 25.90625 163.886719 22.492188 167.300781 18.28125 167.300781 C 14.070312 167.300781 10.65625 163.886719 10.65625 159.671875 C 10.65625 155.460938 14.070312 152.042969 18.28125 152.042969 C 22.492188 152.042969 25.90625 155.460938 25.90625 159.671875 " fill-opacity="1" fill-rule="nonzero"/><path fill="#ad6d41" d="M 24.675781 158.703125 C 24.675781 162.289062 21.765625 165.199219 18.179688 165.199219 C 14.59375 165.199219 11.6875 162.289062 11.6875 158.703125 C 11.6875 155.113281 14.59375 152.207031 18.179688 152.207031 C 21.765625 152.207031 24.675781 155.113281 24.675781 158.703125 " fill-opacity="1" fill-rule="nonzero"/><path fill="#bf8756" d="M 22.113281 156.285156 C 22.113281 158.34375 20.445312 160.011719 18.386719 160.011719 C 16.332031 160.011719 14.664062 158.34375 14.664062 156.285156 C 14.664062 154.226562 16.332031 152.558594 18.386719 152.558594 C 20.445312 152.558594 22.113281 154.226562 22.113281 156.285156 " fill-opacity="1" fill-rule="nonzero"/><path fill="#965e3d" d="M 34.671875 175.304688 C 34.671875 179.515625 31.257812 182.929688 27.046875 182.929688 C 22.835938 182.929688 19.425781 179.515625 19.425781 175.304688 C 19.425781 171.089844 22.835938 167.675781 27.046875 167.675781 C 31.257812 167.675781 34.671875 171.089844 34.671875 175.304688 " fill-opacity="1" fill-rule="nonzero"/><path fill="#ad6d41" d="M 33.441406 174.332031 C 33.441406 177.917969 30.535156 180.828125 26.949219 180.828125 C 23.363281 180.828125 20.457031 177.917969 20.457031 174.332031 C 20.457031 170.742188 23.363281 167.835938 26.949219 167.835938 C 30.535156 167.835938 33.441406 170.742188 33.441406 174.332031 " fill-opacity="1" fill-rule="nonzero"/><path fill="#bf8756" d="M 30.882812 171.914062 C 30.882812 173.972656 29.214844 175.640625 27.15625 175.640625 C 25.097656 175.640625 23.433594 173.972656 23.433594 171.914062 C 23.433594 169.859375 25.097656 168.191406 27.15625 168.191406 C 29.214844 168.191406 30.882812 169.859375 30.882812 171.914062 " fill-opacity="1" fill-rule="nonzero"/><path fill="#965e3d" d="M 33.816406 174.355469 C 33.816406 178.566406 30.402344 181.980469 26.191406 181.980469 C 21.980469 181.980469 18.566406 178.566406 18.566406 174.355469 C 18.566406 170.140625 21.980469 166.722656 26.191406 166.722656 C 30.402344 166.722656 33.816406 170.140625 33.816406 174.355469 " fill-opacity="1" fill-rule="nonzero"/><path fill="#ad6d41" d="M 32.585938 173.382812 C 32.585938 176.96875 29.679688 179.878906 26.09375 179.878906 C 22.507812 179.878906 19.597656 176.96875 19.597656 173.382812 C 19.597656 169.792969 22.507812 166.886719 26.09375 166.886719 C 29.679688 166.886719 32.585938 169.792969 32.585938 173.382812 " fill-opacity="1" fill-rule="nonzero"/><path fill="#bf8756" d="M 30.027344 170.964844 C 30.027344 173.023438 28.359375 174.691406 26.300781 174.691406 C 24.246094 174.691406 22.574219 173.023438 22.574219 170.964844 C 22.574219 168.90625 24.246094 167.238281 26.300781 167.238281 C 28.359375 167.238281 30.027344 168.90625 30.027344 170.964844 " fill-opacity="1" fill-rule="nonzero"/><path fill="#965e3d" d="M 43.460938 189.597656 C 43.460938 193.808594 40.046875 197.222656 35.835938 197.222656 C 31.625 197.222656 28.214844 193.808594 28.214844 189.597656 C 28.214844 185.382812 31.625 181.96875 35.835938 181.96875 C 40.046875 181.96875 43.460938 185.382812 43.460938 189.597656 " fill-opacity="1" fill-rule="nonzero"/><path fill="#ad6d41" d="M 42.230469 188.625 C 42.230469 192.214844 39.324219 195.121094 35.738281 195.121094 C 32.152344 195.121094 29.246094 192.214844 29.246094 188.625 C 29.246094 185.035156 32.152344 182.128906 35.738281 182.128906 C 39.324219 182.128906 42.230469 185.035156 42.230469 188.625 " fill-opacity="1" fill-rule="nonzero"/><path fill="#bf8756" d="M 39.671875 186.207031 C 39.671875 188.265625 38.003906 189.933594 35.945312 189.933594 C 33.886719 189.933594 32.222656 188.265625 32.222656 186.207031 C 32.222656 184.148438 33.886719 182.480469 35.945312 182.480469 C 38.003906 182.480469 39.671875 184.148438 39.671875 186.207031 " fill-opacity="1" fill-rule="nonzero"/><path fill="#965e3d" d="M 49.015625 205.207031 C 49.015625 209.421875 45.601562 212.835938 41.390625 212.835938 C 37.179688 212.835938 33.765625 209.421875 33.765625 205.207031 C 33.765625 200.992188 37.179688 197.578125 41.390625 197.578125 C 45.601562 197.578125 49.015625 200.992188 49.015625 205.207031 " fill-opacity="1" fill-rule="nonzero"/><path fill="#ad6d41" d="M 47.785156 204.234375 C 47.785156 207.824219 44.875 210.734375 41.289062 210.734375 C 37.703125 210.734375 34.796875 207.824219 34.796875 204.234375 C 34.796875 200.648438 37.703125 197.742188 41.289062 197.742188 C 44.875 197.742188 47.785156 200.648438 47.785156 204.234375 " fill-opacity="1" fill-rule="nonzero"/><path fill="#bf8756" d="M 45.222656 201.820312 C 45.222656 203.878906 43.554688 205.550781 41.496094 205.550781 C 39.441406 205.550781 37.773438 203.878906 37.773438 201.820312 C 37.773438 199.761719 39.441406 198.09375 41.496094 198.09375 C 43.554688 198.09375 45.222656 199.761719 45.222656 201.820312 " fill-opacity="1" fill-rule="nonzero"/><path fill="#965e3d" d="M 54.019531 220.882812 C 54.019531 225.097656 50.605469 228.511719 46.394531 228.511719 C 42.183594 228.511719 38.769531 225.097656 38.769531 220.882812 C 38.769531 216.667969 42.183594 213.253906 46.394531 213.253906 C 50.605469 213.253906 54.019531 216.667969 54.019531 220.882812 " fill-opacity="1" fill-rule="nonzero"/><path fill="#ad6d41" d="M 52.785156 219.910156 C 52.785156 223.5 49.878906 226.40625 46.292969 226.40625 C 42.707031 226.40625 39.800781 223.5 39.800781 219.910156 C 39.800781 216.324219 42.707031 213.414062 46.292969 213.414062 C 49.878906 213.414062 52.785156 216.324219 52.785156 219.910156 " fill-opacity="1" fill-rule="nonzero"/><path fill="#bf8756" d="M 50.226562 217.496094 C 50.226562 219.554688 48.558594 221.222656 46.5 221.222656 C 44.445312 221.222656 42.777344 219.554688 42.777344 217.496094 C 42.777344 215.4375 44.445312 213.769531 46.5 213.769531 C 48.558594 213.769531 50.226562 215.4375 50.226562 217.496094 " fill-opacity="1" fill-rule="nonzero"/><path fill="#844f35" d="M 59.339844 236.679688 C 59.339844 240.890625 55.925781 244.304688 51.714844 244.304688 C 47.503906 244.304688 44.089844 240.890625 44.089844 236.679688 C 44.089844 232.464844 47.503906 229.050781 51.714844 229.050781 C 55.925781 229.050781 59.339844 232.464844 59.339844 236.679688 " fill-opacity="1" fill-rule="nonzero"/><path fill="#ad6d41" d="M 58.105469 235.707031 C 58.105469 239.296875 55.199219 242.207031 51.613281 242.207031 C 48.027344 242.207031 45.121094 239.296875 45.121094 235.707031 C 45.121094 232.121094 48.027344 229.210938 51.613281 229.210938 C 55.199219 229.210938 58.105469 232.121094 58.105469 235.707031 " fill-opacity="1" fill-rule="nonzero"/><path fill="#bf8756" d="M 55.546875 233.292969 C 55.546875 235.351562 53.878906 237.019531 51.820312 237.019531 C 49.765625 237.019531 48.097656 235.351562 48.097656 233.292969 C 48.097656 231.234375 49.765625 229.566406 51.820312 229.566406 C 53.878906 229.566406 55.546875 231.234375 55.546875 233.292969 " fill-opacity="1" fill-rule="nonzero"/><path fill="#844f35" d="M 78.347656 255.507812 C 78.347656 259.71875 74.933594 263.136719 70.722656 263.136719 C 66.511719 263.136719 63.097656 259.71875 63.097656 255.507812 C 63.097656 251.292969 66.511719 247.878906 70.722656 247.878906 C 74.933594 247.878906 78.347656 251.292969 78.347656 255.507812 " fill-opacity="1" fill-rule="nonzero"/><path fill="#ad6d41" d="M 77.113281 254.539062 C 77.113281 258.125 74.207031 261.03125 70.621094 261.03125 C 67.035156 261.03125 64.128906 258.125 64.128906 254.539062 C 64.128906 250.949219 67.035156 248.039062 70.621094 248.039062 C 74.207031 248.039062 77.113281 250.949219 77.113281 254.539062 " fill-opacity="1" fill-rule="nonzero"/><path fill="#bf8756" d="M 74.554688 252.121094 C 74.554688 254.179688 72.886719 255.847656 70.832031 255.847656 C 68.773438 255.847656 67.105469 254.179688 67.105469 252.121094 C 67.105469 250.0625 68.773438 248.394531 70.832031 248.394531 C 72.886719 248.394531 74.554688 250.0625 74.554688 252.121094 " fill-opacity="1" fill-rule="nonzero"/><path fill="#844f35" d="M 95.453125 254.730469 C 95.453125 258.945312 92.039062 262.359375 87.828125 262.359375 C 83.617188 262.359375 80.203125 258.945312 80.203125 254.730469 C 80.203125 250.519531 83.617188 247.101562 87.828125 247.101562 C 92.039062 247.101562 95.453125 250.519531 95.453125 254.730469 " fill-opacity="1" fill-rule="nonzero"/><path fill="#ad6d41" d="M 94.222656 253.761719 C 94.222656 257.347656 91.316406 260.257812 87.730469 260.257812 C 84.144531 260.257812 81.234375 257.347656 81.234375 253.761719 C 81.234375 250.171875 84.144531 247.265625 87.730469 247.265625 C 91.316406 247.265625 94.222656 250.171875 94.222656 253.761719 " fill-opacity="1" fill-rule="nonzero"/><path fill="#bf8756" d="M 91.660156 251.347656 C 91.660156 253.402344 89.992188 255.070312 87.9375 255.070312 C 85.878906 255.070312 84.210938 253.402344 84.210938 251.347656 C 84.210938 249.285156 85.878906 247.617188 87.9375 247.617188 C 89.992188 247.617188 91.660156 249.285156 91.660156 251.347656 " fill-opacity="1" fill-rule="nonzero"/><path fill="#844f35" d="M 105.898438 241.878906 C 105.898438 246.09375 102.484375 249.507812 98.273438 249.507812 C 94.0625 249.507812 90.652344 246.09375 90.652344 241.878906 C 90.652344 237.667969 94.0625 234.253906 98.273438 234.253906 C 102.484375 234.253906 105.898438 237.667969 105.898438 241.878906 " fill-opacity="1" fill-rule="nonzero"/><path fill="#ad6d41" d="M 104.667969 240.910156 C 104.667969 244.496094 101.761719 247.40625 98.175781 247.40625 C 94.589844 247.40625 91.679688 244.496094 91.679688 240.910156 C 91.679688 237.324219 94.589844 234.414062 98.175781 234.414062 C 101.761719 234.414062 104.667969 237.324219 104.667969 240.910156 " fill-opacity="1" fill-rule="nonzero"/><path fill="#bf8756" d="M 102.109375 238.492188 C 102.109375 240.550781 100.441406 242.21875 98.382812 242.21875 C 96.324219 242.21875 94.65625 240.550781 94.65625 238.492188 C 94.65625 236.4375 96.324219 234.765625 98.382812 234.765625 C 100.441406 234.765625 102.109375 236.4375 102.109375 238.492188 " fill-opacity="1" fill-rule="nonzero"/><path fill="#965e3d" d="M 31.65625 82.625 C 31.65625 86.839844 28.242188 90.257812 24.03125 90.257812 C 19.820312 90.257812 16.40625 86.839844 16.40625 82.625 C 16.40625 78.414062 19.820312 75 24.03125 75 C 28.242188 75 31.65625 78.414062 31.65625 82.625 " fill-opacity="1" fill-rule="nonzero"/><path fill="#f5e2d9" d="M 189.734375 106.371094 C 189.472656 106.171875 189.21875 105.976562 188.964844 105.785156 C 188.933594 105.703125 188.914062 105.667969 188.914062 105.667969 C 189.1875 105.902344 189.460938 106.136719 189.734375 106.371094 " fill-opacity="1" fill-rule="nonzero"/><path fill="#f5b194" d="M 241.800781 202.46875 C 241.800781 202.46875 190.199219 175.816406 193.402344 167.734375 C 204.210938 140.453125 189.953125 107.972656 188.964844 105.785156 C 189.21875 105.976562 189.472656 106.171875 189.734375 106.371094 C 213.414062 126.484375 239.902344 131.695312 241.15625 135.363281 C 246.765625 151.738281 241.800781 202.46875 241.800781 202.46875 M 197.316406 112.808594 C 197.316406 112.808594 204.601562 143.257812 203.871094 154.066406 C 203.132812 164.878906 238.152344 181.128906 238.152344 181.128906 C 238.152344 181.128906 243.285156 147.445312 238.152344 135.535156 C 236.414062 131.5 203.480469 119.476562 197.316406 112.808594 " fill-opacity="1" fill-rule="nonzero"/><path fill="#ad6d41" d="M 30.566406 81.875 C 30.566406 85.464844 27.65625 88.375 24.070312 88.375 C 20.484375 88.375 17.578125 85.464844 17.578125 81.875 C 17.578125 78.289062 20.484375 75.378906 24.070312 75.378906 C 27.65625 75.378906 30.566406 78.289062 30.566406 81.875 " fill-opacity="1" fill-rule="nonzero"/><path fill="#ffaf8e" d="M 45.476562 84.3125 C 45.476562 84.3125 48.734375 85.933594 49.085938 89.847656 C 49.632812 95.878906 46.476562 107.8125 40.195312 108.722656 C 26.476562 110.707031 17.980469 112.183594 16.078125 100.410156 C 15.054688 94.046875 18.59375 75.777344 45.476562 84.3125 " fill-opacity="1" fill-rule="nonzero"/><path fill="#ff7354" d="M 64.113281 109.753906 C 64.113281 109.753906 53.902344 108.980469 48.835938 108.25 C 43.769531 107.523438 32.140625 108.753906 27.800781 109.539062 C 23.457031 110.324219 20.597656 107.753906 20.390625 107.226562 C 20.1875 106.699219 22.730469 106.691406 22.445312 102.578125 C 22.335938 101.007812 21.28125 95.832031 24.707031 91.441406 C 30.457031 84.066406 25.386719 84.175781 23.917969 84.066406 C 22.449219 83.957031 15.015625 95.011719 16.464844 101.421875 C 17.910156 107.835938 19.960938 110.042969 24.03125 111.050781 C 25.578125 111.433594 28.28125 111.082031 32.222656 110.730469 C 38.640625 110.160156 48.351562 109.589844 61.753906 112.183594 L 64.113281 109.753906 " fill-opacity="1" fill-rule="nonzero"/><path fill="#cac3c0" d="M 46.109375 83.984375 C 45.671875 83.980469 45.226562 83.972656 44.78125 83.96875 C 44.632812 83.96875 44.476562 83.964844 44.316406 83.957031 C 42.386719 83.382812 40.582031 82.953125 38.894531 82.652344 L 45.433594 83.375 C 45.664062 83.574219 45.890625 83.777344 46.109375 83.984375 " fill-opacity="1" fill-rule="nonzero"/><path fill="#c78059" d="M 58.683594 106.351562 C 57.527344 105.132812 58.074219 103.363281 58.074219 103.363281 C 58.074219 103.363281 57.734375 103.480469 57.078125 103.480469 C 56.203125 103.480469 54.765625 103.273438 52.847656 102.308594 C 54.121094 99.722656 55.089844 97.332031 55.816406 95.195312 C 57.527344 96.570312 59.742188 98.113281 62.164062 99.65625 C 61.648438 100.683594 61.355469 101.847656 61.355469 103.078125 C 61.355469 104.179688 61.585938 105.222656 62.003906 106.164062 C 60.898438 106.175781 59.789062 106.234375 58.683594 106.351562 M 47.289062 85.757812 C 46.378906 84.761719 45.476562 84.3125 45.476562 84.3125 C 45.085938 84.1875 44.699219 84.070312 44.316406 83.957031 C 44.476562 83.960938 44.632812 83.964844 44.78125 83.96875 C 45.226562 83.972656 45.671875 83.976562 46.109375 83.984375 C 46.570312 84.414062 47.003906 84.859375 47.417969 85.308594 L 47.289062 85.757812 " fill-opacity="1" fill-rule="nonzero"/><path fill="#ca7856" d="M 52.847656 102.308594 C 52.09375 101.929688 51.269531 101.4375 50.371094 100.789062 C 49.367188 100.070312 48.636719 99.269531 48.109375 98.457031 C 48.957031 95.355469 49.296875 92.167969 49.085938 89.847656 C 48.917969 87.996094 48.101562 86.65625 47.289062 85.757812 L 47.417969 85.3125 C 48.878906 86.898438 50.09375 88.582031 51.167969 90.074219 C 52.09375 91.359375 52.890625 92.46875 53.683594 93.289062 C 54.246094 93.871094 54.96875 94.511719 55.816406 95.195312 C 55.089844 97.332031 54.121094 99.726562 52.847656 102.308594 " fill-opacity="1" fill-rule="nonzero"/><path fill="#cac3c0" d="M 52.199219 84.125 C 51.601562 84.109375 51 84.089844 50.390625 84.074219 C 50.34375 84.019531 50.296875 83.964844 50.25 83.910156 L 52.199219 84.125 " fill-opacity="1" fill-rule="nonzero"/><path fill="#c78059" d="M 64.070312 97.242188 C 61.117188 95.382812 58.484375 93.53125 56.785156 92.035156 C 57.132812 90.753906 57.386719 89.605469 57.574219 88.613281 C 60.160156 90.816406 63.289062 93.53125 66.007812 96.050781 C 65.300781 96.351562 64.648438 96.753906 64.070312 97.242188 M 52.308594 84.210938 L 50.457031 84.152344 C 50.4375 84.125 50.414062 84.097656 50.390625 84.074219 C 51 84.089844 51.605469 84.105469 52.203125 84.125 C 52.203125 84.125 52.238281 84.15625 52.308594 84.210938 " fill-opacity="1" fill-rule="nonzero"/><path fill="#ca7856" d="M 56.785156 92.035156 C 56.441406 91.730469 56.136719 91.445312 55.875 91.171875 C 55.234375 90.507812 54.496094 89.480469 53.640625 88.292969 C 52.734375 87.035156 51.695312 85.59375 50.457031 84.152344 L 52.308594 84.210938 C 52.785156 84.601562 54.890625 86.335938 57.574219 88.613281 C 57.386719 89.605469 57.132812 90.753906 56.785156 92.035156 " fill-opacity="1" fill-rule="nonzero"/><path fill="#cac3c0" d="M 33.894531 82.097656 C 33.84375 82.09375 33.792969 82.09375 33.742188 82.09375 C 33.738281 82.085938 33.738281 82.082031 33.738281 82.082031 L 33.894531 82.097656 " fill-opacity="1" fill-rule="nonzero"/><path fill="#8a7568" d="M 62.164062 99.65625 C 59.742188 98.113281 57.527344 96.570312 55.816406 95.195312 C 54.96875 94.511719 54.246094 93.867188 53.6875 93.289062 C 52.890625 92.464844 52.09375 91.355469 51.171875 90.074219 C 50.09375 88.582031 48.878906 86.898438 47.417969 85.308594 C 47.003906 84.859375 46.570312 84.414062 46.109375 83.984375 C 45.890625 83.78125 45.664062 83.578125 45.433594 83.375 L 50.25 83.910156 C 50.296875 83.964844 50.34375 84.015625 50.390625 84.074219 C 50.414062 84.101562 50.4375 84.125 50.457031 84.152344 C 51.695312 85.59375 52.734375 87.039062 53.640625 88.292969 C 54.496094 89.480469 55.234375 90.507812 55.875 91.171875 C 56.136719 91.445312 56.441406 91.730469 56.785156 92.035156 C 58.484375 93.53125 61.117188 95.382812 64.070312 97.242188 C 63.28125 97.90625 62.632812 98.726562 62.164062 99.65625 " fill-opacity="1" fill-rule="nonzero"/><path fill="#ca896e" d="M 48.109375 98.457031 C 46.066406 95.308594 47.070312 91.949219 47.070312 91.949219 C 47.070312 91.949219 45.667969 91.949219 41.953125 90.820312 C 41.945312 90.664062 41.933594 90.511719 41.917969 90.363281 C 41.632812 87.199219 39.003906 85.890625 39.003906 85.890625 C 37.472656 85.273438 36.070312 84.984375 34.785156 84.957031 C 34.0625 83.464844 33.773438 82.230469 33.742188 82.09375 C 33.789062 82.097656 33.84375 82.097656 33.894531 82.097656 L 38.894531 82.652344 C 40.582031 82.957031 42.386719 83.386719 44.316406 83.957031 C 44.699219 84.070312 45.085938 84.1875 45.476562 84.3125 C 45.476562 84.3125 46.378906 84.761719 47.289062 85.761719 C 48.101562 86.65625 48.917969 87.996094 49.085938 89.847656 C 49.296875 92.167969 48.960938 95.355469 48.109375 98.457031 " fill-opacity="1" fill-rule="nonzero"/><path fill="#965e3d" d="M 76.605469 103.082031 C 76.605469 107.292969 73.191406 110.707031 68.980469 110.707031 C 64.769531 110.707031 61.355469 107.292969 61.355469 103.082031 C 61.355469 98.867188 64.769531 95.453125 68.980469 95.453125 C 73.191406 95.453125 76.605469 98.867188 76.605469 103.082031 " fill-opacity="1" fill-rule="nonzero"/><path fill="#ad6d41" d="M 75.867188 102.054688 C 75.867188 105.644531 72.957031 108.550781 69.375 108.550781 C 65.785156 108.550781 62.878906 105.644531 62.878906 102.054688 C 62.878906 98.46875 65.785156 95.558594 69.375 95.558594 C 72.957031 95.558594 75.867188 98.46875 75.867188 102.054688 " fill-opacity="1" fill-rule="nonzero"/><path fill="#bf8756" d="M 73.304688 99.640625 C 73.304688 101.699219 71.636719 103.367188 69.582031 103.367188 C 67.523438 103.367188 65.855469 101.699219 65.855469 99.640625 C 65.855469 97.582031 67.523438 95.914062 69.582031 95.914062 C 71.636719 95.914062 73.304688 97.582031 73.304688 99.640625 " fill-opacity="1" fill-rule="nonzero"/><path fill="#844f35" d="M 105.199219 128.082031 C 105.199219 132.296875 101.785156 135.710938 97.574219 135.710938 C 93.363281 135.710938 89.949219 132.296875 89.949219 128.082031 C 89.949219 123.871094 93.363281 120.453125 97.574219 120.453125 C 101.785156 120.453125 105.199219 123.871094 105.199219 128.082031 " fill-opacity="1" fill-rule="nonzero"/><path fill="#ad6d41" d="M 104.460938 127.058594 C 104.460938 130.648438 101.550781 133.554688 97.964844 133.554688 C 94.382812 133.554688 91.472656 130.648438 91.472656 127.058594 C 91.472656 123.46875 94.382812 120.5625 97.964844 120.5625 C 101.550781 120.5625 104.460938 123.46875 104.460938 127.058594 " fill-opacity="1" fill-rule="nonzero"/><path fill="#bf8756" d="M 101.898438 124.644531 C 101.898438 126.703125 100.230469 128.367188 98.175781 128.367188 C 96.117188 128.367188 94.453125 126.703125 94.453125 124.644531 C 94.453125 122.585938 96.117188 120.917969 98.175781 120.917969 C 100.230469 120.917969 101.898438 122.585938 101.898438 124.644531 " fill-opacity="1" fill-rule="nonzero"/><path fill="#844f35" d="M 111.664062 144.113281 C 111.664062 148.328125 108.25 151.742188 104.039062 151.742188 C 99.828125 151.742188 96.414062 148.328125 96.414062 144.113281 C 96.414062 139.898438 99.828125 136.484375 104.039062 136.484375 C 108.25 136.484375 111.664062 139.898438 111.664062 144.113281 " fill-opacity="1" fill-rule="nonzero"/><path fill="#ad6d41" d="M 110.925781 143.085938 C 110.925781 146.675781 108.019531 149.585938 104.433594 149.585938 C 100.847656 149.585938 97.941406 146.675781 97.941406 143.085938 C 97.941406 139.5 100.847656 136.59375 104.433594 136.59375 C 108.019531 136.59375 110.925781 139.5 110.925781 143.085938 " fill-opacity="1" fill-rule="nonzero"/><path fill="#bf8756" d="M 108.367188 140.671875 C 108.367188 142.730469 106.699219 144.398438 104.644531 144.398438 C 102.585938 144.398438 100.917969 142.730469 100.917969 140.671875 C 100.917969 138.613281 102.585938 136.945312 104.644531 136.945312 C 106.699219 136.945312 108.367188 138.613281 108.367188 140.671875 " fill-opacity="1" fill-rule="nonzero"/><path fill="#844f35" d="M 115.449219 160.105469 C 115.449219 164.320312 112.035156 167.734375 107.824219 167.734375 C 103.613281 167.734375 100.199219 164.320312 100.199219 160.105469 C 100.199219 155.894531 103.613281 152.480469 107.824219 152.480469 C 112.035156 152.480469 115.449219 155.894531 115.449219 160.105469 " fill-opacity="1" fill-rule="nonzero"/><path fill="#ad6d41" d="M 114.710938 159.082031 C 114.710938 162.671875 111.804688 165.578125 108.21875 165.578125 C 104.632812 165.578125 101.726562 162.671875 101.726562 159.082031 C 101.726562 155.492188 104.632812 152.585938 108.21875 152.585938 C 111.804688 152.585938 114.710938 155.492188 114.710938 159.082031 " fill-opacity="1" fill-rule="nonzero"/><path fill="#bf8756" d="M 112.152344 156.664062 C 112.152344 158.722656 110.484375 160.390625 108.425781 160.390625 C 106.371094 160.390625 104.703125 158.722656 104.703125 156.664062 C 104.703125 154.609375 106.371094 152.941406 108.425781 152.941406 C 110.484375 152.941406 112.152344 154.609375 112.152344 156.664062 " fill-opacity="1" fill-rule="nonzero"/><path fill="#844f35" d="M 113.097656 176.46875 C 113.097656 180.679688 109.683594 184.09375 105.472656 184.09375 C 101.265625 184.09375 97.847656 180.679688 97.847656 176.46875 C 97.847656 172.253906 101.265625 168.839844 105.472656 168.839844 C 109.683594 168.839844 113.097656 172.253906 113.097656 176.46875 " fill-opacity="1" fill-rule="nonzero"/><path fill="#ad6d41" d="M 112.363281 175.441406 C 112.363281 179.027344 109.453125 181.9375 105.867188 181.9375 C 102.28125 181.9375 99.375 179.027344 99.375 175.441406 C 99.375 171.855469 102.28125 168.945312 105.867188 168.945312 C 109.453125 168.945312 112.363281 171.855469 112.363281 175.441406 " fill-opacity="1" fill-rule="nonzero"/><path fill="#bf8756" d="M 109.800781 173.027344 C 109.800781 175.085938 108.132812 176.753906 106.074219 176.753906 C 104.019531 176.753906 102.351562 175.085938 102.351562 173.027344 C 102.351562 170.96875 104.019531 169.300781 106.074219 169.300781 C 108.132812 169.300781 109.800781 170.96875 109.800781 173.027344 " fill-opacity="1" fill-rule="nonzero"/><path fill="#844f35" d="M 110.375 193.132812 C 110.375 197.347656 106.960938 200.761719 102.75 200.761719 C 98.539062 200.761719 95.125 197.347656 95.125 193.132812 C 95.125 188.921875 98.539062 185.507812 102.75 185.507812 C 106.960938 185.507812 110.375 188.921875 110.375 193.132812 " fill-opacity="1" fill-rule="nonzero"/><path fill="#ad6d41" d="M 109.636719 192.109375 C 109.636719 195.699219 106.726562 198.605469 103.140625 198.605469 C 99.558594 198.605469 96.648438 195.699219 96.648438 192.109375 C 96.648438 188.519531 99.558594 185.613281 103.140625 185.613281 C 106.726562 185.613281 109.636719 188.519531 109.636719 192.109375 " fill-opacity="1" fill-rule="nonzero"/><path fill="#bf8756" d="M 107.074219 189.695312 C 107.074219 191.75 105.40625 193.421875 103.351562 193.421875 C 101.292969 193.421875 99.625 191.75 99.625 189.695312 C 99.625 187.636719 101.292969 185.96875 103.351562 185.96875 C 105.40625 185.96875 107.074219 187.636719 107.074219 189.695312 " fill-opacity="1" fill-rule="nonzero"/><path fill="#844f35" d="M 111.9375 209.535156 C 111.9375 213.75 108.523438 217.164062 104.3125 217.164062 C 100.101562 217.164062 96.6875 213.75 96.6875 209.535156 C 96.6875 205.324219 100.101562 201.90625 104.3125 201.90625 C 108.523438 201.90625 111.9375 205.324219 111.9375 209.535156 " fill-opacity="1" fill-rule="nonzero"/><path fill="#ad6d41" d="M 111.199219 208.511719 C 111.199219 212.097656 108.292969 215.007812 104.703125 215.007812 C 101.121094 215.007812 98.210938 212.097656 98.210938 208.511719 C 98.210938 204.925781 101.121094 202.015625 104.703125 202.015625 C 108.292969 202.015625 111.199219 204.925781 111.199219 208.511719 " fill-opacity="1" fill-rule="nonzero"/><path fill="#bf8756" d="M 108.636719 206.09375 C 108.636719 208.152344 106.972656 209.820312 104.914062 209.820312 C 102.855469 209.820312 101.1875 208.152344 101.1875 206.09375 C 101.1875 204.035156 102.855469 202.367188 104.914062 202.367188 C 106.972656 202.367188 108.636719 204.035156 108.636719 206.09375 " fill-opacity="1" fill-rule="nonzero"/><path fill="#844f35" d="M 111.144531 226.113281 C 111.144531 230.324219 107.734375 233.742188 103.523438 233.742188 C 99.3125 233.742188 95.898438 230.324219 95.898438 226.113281 C 95.898438 221.898438 99.3125 218.484375 103.523438 218.484375 C 107.734375 218.484375 111.144531 221.898438 111.144531 226.113281 " fill-opacity="1" fill-rule="nonzero"/><path fill="#ad6d41" d="M 110.40625 225.089844 C 110.40625 228.675781 107.5 231.585938 103.914062 231.585938 C 100.328125 231.585938 97.421875 228.675781 97.421875 225.089844 C 97.421875 221.5 100.328125 218.59375 103.914062 218.59375 C 107.5 218.59375 110.40625 221.5 110.40625 225.089844 " fill-opacity="1" fill-rule="nonzero"/><path fill="#bf8756" d="M 107.847656 222.671875 C 107.847656 224.730469 106.179688 226.398438 104.121094 226.398438 C 102.066406 226.398438 100.398438 224.730469 100.398438 222.671875 C 100.398438 220.613281 102.066406 218.945312 104.121094 218.945312 C 106.179688 218.945312 107.847656 220.613281 107.847656 222.671875 " fill-opacity="1" fill-rule="nonzero"/><path fill="#844f35" d="M 91.53125 110.628906 C 91.53125 114.84375 88.117188 118.257812 83.90625 118.257812 C 79.695312 118.257812 76.28125 114.84375 76.28125 110.628906 C 76.28125 106.417969 79.695312 103 83.90625 103 C 88.117188 103 91.53125 106.417969 91.53125 110.628906 " fill-opacity="1" fill-rule="nonzero"/><path fill="#f5bca4" d="M 30.730469 106.957031 C 26.738281 106.957031 24.722656 103.789062 24.085938 99.25 C 23.46875 94.84375 26.746094 84.957031 34.59375 84.957031 C 34.65625 84.957031 34.71875 84.957031 34.785156 84.957031 C 35.726562 86.917969 37.40625 89.316406 40.195312 90.253906 C 40.832031 90.46875 41.417969 90.65625 41.953125 90.820312 C 42.253906 95.722656 40.574219 103.414062 36.082031 105.527344 C 34 106.511719 32.226562 106.957031 30.730469 106.957031 " fill-opacity="1" fill-rule="nonzero"/><path fill="#dcaa95" d="M 41.953125 90.820312 C 41.417969 90.65625 40.832031 90.46875 40.195312 90.253906 C 37.40625 89.316406 35.726562 86.917969 34.785156 84.957031 C 36.070312 84.984375 37.476562 85.273438 39.003906 85.890625 C 39.003906 85.890625 41.632812 87.199219 41.917969 90.359375 C 41.933594 90.511719 41.945312 90.664062 41.953125 90.820312 " fill-opacity="1" fill-rule="nonzero"/><g clip-path="url(#bceeca5e03)"><path fill="#ed9062" d="M 51 60.105469 C 51.035156 59.269531 51.648438 58.570312 52.472656 58.421875 C 59.933594 57.113281 95.667969 51.328125 104.921875 50.734375 C 111.28125 50.328125 124.855469 52.628906 148.898438 69.546875 C 160.878906 77.976562 183.015625 94.578125 193.398438 124.644531 C 198.734375 140.089844 193.398438 175.445312 169.132812 166.363281 C 151.660156 159.824219 133.539062 136.710938 130.238281 125.484375 C 128.761719 120.449219 117.234375 91.753906 115.804688 91.054688 C 114.738281 90.527344 109.21875 90.273438 107.808594 88.035156 C 106.207031 85.484375 104.058594 81.394531 92.648438 81.394531 C 64.421875 81.394531 50.328125 76.871094 51 60.105469 " fill-opacity="1" fill-rule="nonzero"/></g><path fill="#f5e2d9" d="M 175.445312 93.167969 C 171.644531 88.636719 167.710938 84.707031 163.921875 81.3125 C 168.261719 85.09375 172.234375 89.085938 175.445312 93.167969 M 51.875 58.644531 C 52.089844 58.480469 52.339844 58.355469 52.617188 58.277344 C 52.597656 58.289062 52.578125 58.300781 52.5625 58.308594 C 52.5625 58.308594 52.566406 58.339844 52.578125 58.40625 C 52.542969 58.410156 52.507812 58.414062 52.472656 58.421875 C 52.257812 58.460938 52.054688 58.535156 51.875 58.644531 M 94.78125 51.878906 C 96.085938 51.679688 97.410156 51.5 98.773438 51.367188 C 97.539062 51.515625 96.199219 51.691406 94.78125 51.878906 " fill-opacity="1" fill-rule="nonzero"/><path fill="#ecae8f" d="M 173.835938 160.496094 C 167.078125 160.5 157.996094 158.855469 144.425781 142.558594 C 130.15625 125.421875 117.53125 88.503906 116.804688 86.296875 C 115.90625 83.570312 120.285156 77.8125 120.800781 70.46875 C 120.800781 70.457031 120.800781 70.449219 120.796875 70.449219 C 120.59375 70.449219 115.53125 80.039062 113.425781 81.292969 C 113.277344 81.382812 113.125 81.425781 112.96875 81.425781 C 112.0625 81.425781 111.152344 80.007812 111.496094 78.535156 C 113.074219 71.742188 111.503906 67.917969 110.433594 67.917969 C 110.199219 67.917969 109.988281 68.105469 109.839844 68.484375 C 107.152344 75.417969 96.59375 77.613281 85.03125 78.101562 C 84.105469 78.140625 83.203125 78.160156 82.320312 78.160156 C 60.179688 78.160156 51.796875 66.125 51.03125 60.664062 C 50.921875 59.863281 51.269531 59.101562 51.875 58.644531 C 52.054688 58.535156 52.257812 58.460938 52.472656 58.421875 C 52.507812 58.417969 52.542969 58.410156 52.578125 58.40625 C 52.8125 59.53125 55.511719 70.378906 72.914062 71.03125 C 74.667969 71.09375 76.308594 71.125 77.839844 71.125 C 99.136719 71.128906 99.25 65.082031 104.429688 61.671875 C 106.535156 60.285156 108.351562 59.511719 109.851562 59.511719 C 112.300781 59.511719 113.894531 61.59375 114.484375 66.496094 C 114.738281 68.574219 115.253906 69.339844 115.878906 69.339844 C 117.625 69.339844 120.210938 63.378906 120.210938 63.378906 C 120.210938 63.378906 126.449219 66.390625 124.289062 80.082031 C 123.042969 88.003906 139.65625 129.351562 171.195312 135.363281 C 171.804688 135.480469 172.40625 135.535156 172.996094 135.535156 C 184.753906 135.535156 191.570312 112.824219 169.5 87.789062 C 165.332031 83.066406 160.730469 78.769531 156.015625 74.929688 C 158.726562 76.96875 161.386719 79.105469 163.917969 81.3125 C 167.710938 84.707031 171.640625 88.636719 175.445312 93.167969 C 176.167969 94.082031 176.851562 95.003906 177.488281 95.925781 C 185.898438 108.046875 206.949219 160.394531 178.554688 160.394531 C 178.550781 160.394531 178.554688 160.394531 178.550781 160.394531 C 177.105469 160.394531 175.542969 160.496094 173.835938 160.496094 M 86.910156 53.117188 C 86.914062 53.117188 86.917969 53.113281 86.921875 53.113281 C 89.5625 52.773438 92.128906 52.285156 94.78125 51.878906 C 96.199219 51.6875 97.539062 51.519531 98.773438 51.367188 C 99.441406 51.300781 100.121094 51.246094 100.808594 51.203125 C 98.242188 51.484375 95.195312 51.921875 91.472656 52.539062 C 90.128906 52.761719 88.585938 52.945312 86.910156 53.117188 " fill-opacity="1" fill-rule="nonzero"/><path fill="#ff7354" d="M 57.203125 156.054688 C 57.203125 156.054688 70.691406 160.832031 79.960938 162.882812 C 89.234375 164.933594 80.675781 142.261719 80.675781 142.261719 C 80.675781 142.261719 50.1875 128.074219 57.203125 156.054688 " fill-opacity="1" fill-rule="nonzero"/><path fill="#ad6d41" d="M 90.402344 109.738281 C 90.402344 113.328125 87.492188 116.234375 83.90625 116.234375 C 80.320312 116.234375 77.414062 113.328125 77.414062 109.738281 C 77.414062 106.152344 80.320312 103.242188 83.90625 103.242188 C 87.492188 103.242188 90.402344 106.152344 90.402344 109.738281 " fill-opacity="1" fill-rule="nonzero"/><path fill="#bf8756" d="M 87.839844 107.324219 C 87.839844 109.382812 86.171875 111.050781 84.113281 111.050781 C 82.058594 111.050781 80.390625 109.382812 80.390625 107.324219 C 80.390625 105.265625 82.058594 103.597656 84.113281 103.597656 C 86.171875 103.597656 87.839844 105.265625 87.839844 107.324219 " fill-opacity="1" fill-rule="nonzero"/><path fill="#ff976d" d="M 93.394531 129.210938 C 96.941406 127.871094 99.550781 122.265625 98.664062 118.578125 C 97.476562 113.640625 92.554688 111.1875 84.832031 109.886719 C 74.578125 108.15625 54.472656 100.085938 42.070312 115.066406 C 34.738281 123.917969 42.476562 134.144531 49.914062 135.296875 C 55.535156 136.164062 80.785156 133.96875 93.394531 129.210938 " fill-opacity="1" fill-rule="nonzero"/><path fill="#f5e2d9" d="M 42.480469 114.578125 C 42.625 114.410156 42.773438 114.242188 42.929688 114.074219 C 42.78125 114.242188 42.628906 114.410156 42.480469 114.578125 " fill-opacity="1" fill-rule="nonzero"/><path fill="#f5b194" d="M 53.582031 132.128906 C 52.066406 132.128906 50.269531 132.070312 47.945312 131.9375 C 40.4375 131.507812 36.550781 121.578125 42.480469 114.582031 C 42.628906 114.410156 42.777344 114.242188 42.929688 114.074219 C 42.949219 114.058594 42.964844 114.039062 42.980469 114.019531 C 48.386719 108.308594 54.777344 106.582031 61.0625 106.582031 C 65.441406 106.582031 69.769531 107.421875 73.671875 108.335938 C 70.257812 107.8125 67.933594 107.542969 66.253906 107.542969 C 63.433594 107.542969 62.433594 108.296875 61.175781 109.859375 C 61.175781 109.859375 56.972656 122.496094 63.949219 127.007812 C 66.585938 128.714844 71.082031 129.351562 75.84375 129.351562 C 83.667969 129.351562 92.199219 127.628906 94.351562 126.089844 C 97.386719 123.921875 102.976562 115.828125 87.011719 111 C 92.105469 112.074219 97.542969 114.886719 98.019531 118.59375 C 98.675781 123.671875 95.277344 129.742188 86.710938 129.988281 C 61.769531 130.703125 61.101562 132.128906 53.582031 132.128906 M 56.898438 109.742188 C 56.335938 109.742188 55.167969 111.609375 54.894531 114.5625 C 54.894531 114.5625 54.082031 122.453125 56.796875 124.949219 C 57.085938 125.210938 57.246094 125.339844 57.324219 125.339844 C 57.816406 125.339844 54.429688 119.882812 56.777344 112.503906 C 57.390625 110.582031 57.28125 109.742188 56.898438 109.742188 " fill-opacity="1" fill-rule="nonzero"/><path fill="#f5b194" d="M 87.011719 111 C 86.0625 110.804688 85.128906 110.664062 84.238281 110.59375 C 81.492188 110.363281 77.820312 109.308594 73.671875 108.335938 C 75.234375 108.574219 77.023438 108.867188 79.082031 109.210938 C 82.179688 109.730469 84.800781 110.335938 87.011719 111 " fill-opacity="1" fill-rule="nonzero"/><path fill="#f0bda7" d="M 75.84375 129.351562 C 71.082031 129.351562 66.585938 128.714844 63.949219 127.007812 C 56.972656 122.496094 61.179688 109.859375 61.179688 109.859375 C 62.433594 108.296875 63.433594 107.542969 66.253906 107.542969 C 67.933594 107.542969 70.257812 107.8125 73.671875 108.335938 C 77.820312 109.304688 81.492188 110.363281 84.238281 110.589844 C 85.128906 110.664062 86.0625 110.804688 87.011719 111 C 102.976562 115.828125 97.390625 123.921875 94.351562 126.09375 C 92.199219 127.628906 83.667969 129.351562 75.84375 129.351562 " fill-opacity="1" fill-rule="nonzero"/><path fill="#ff976d" d="M 95.796875 152.609375 C 100.246094 151.453125 105.644531 147.304688 104.089844 140.824219 C 103.113281 136.757812 98.824219 133.789062 93.96875 133 C 84.964844 131.535156 54.738281 129.84375 51.398438 138.964844 C 48.5625 146.714844 50.804688 153.476562 56.589844 155.863281 C 60.992188 157.679688 83.625 155.769531 95.796875 152.609375 " fill-opacity="1" fill-rule="nonzero"/><path fill="#ff976d" d="M 100.492188 173.460938 C 105.109375 171.648438 108.203125 164.152344 106.097656 159.660156 C 104.695312 156.664062 102.375 153.808594 98.617188 153.722656 C 90.636719 153.527344 62.789062 154.773438 60.96875 163.082031 C 58.617188 173.792969 66.046875 183.957031 72.335938 182.894531 C 76.308594 182.222656 89.976562 177.578125 100.492188 173.460938 " fill-opacity="1" fill-rule="nonzero"/><path fill="#f5e2d9" d="M 51.382812 139.003906 C 51.382812 139.003906 51.382812 139.003906 51.386719 139 C 51.382812 139.003906 51.382812 139.003906 51.382812 139.003906 " fill-opacity="1" fill-rule="nonzero"/><path fill="#f5b194" d="M 66.496094 152.671875 C 61.660156 152.671875 57.792969 152.402344 56.328125 151.796875 C 51.226562 149.691406 48.898438 145.828125 51.382812 139.003906 C 51.382812 139.003906 51.382812 139.003906 51.386719 139.003906 C 51.390625 138.988281 51.394531 138.976562 51.398438 138.964844 C 53.339844 133.660156 66.75 132.441406 77.984375 132.441406 C 83.824219 132.441406 89.074219 132.773438 91.820312 133.027344 C 96.785156 133.488281 103.277344 136.386719 103.71875 140.503906 C 104.722656 149.820312 98.351562 149.660156 91.96875 150.757812 C 85.144531 151.9375 74.496094 152.671875 66.496094 152.671875 M 83.257812 133.207031 C 76.464844 133.207031 71.21875 134.070312 71.21875 134.070312 C 71.21875 134.070312 66.863281 134.3125 65.960938 136.632812 C 65.0625 138.953125 66.46875 148.300781 74.1875 149.734375 C 76.324219 150.132812 79.183594 150.328125 82.261719 150.328125 C 90.3125 150.328125 99.84375 149.007812 101.6875 146.566406 C 104.242188 143.195312 105.042969 135.925781 93.972656 134.039062 C 90.320312 133.417969 86.601562 133.207031 83.257812 133.207031 M 63.589844 135.359375 C 63.125 135.359375 62.503906 136.847656 62.714844 138.523438 C 62.714844 138.523438 62.980469 146.152344 65.125 148.242188 C 65.445312 148.554688 65.628906 148.703125 65.707031 148.703125 C 66.164062 148.703125 63.363281 144.023438 63.964844 138.328125 C 64.195312 136.175781 63.933594 135.359375 63.589844 135.359375 " fill-opacity="1" fill-rule="nonzero"/><path fill="#f5b194" d="M 67.082031 179.078125 C 66.25 179.078125 65.511719 178.816406 64.898438 178.164062 C 62.351562 175.453125 57.75 163.867188 64.347656 159.953125 C 72.746094 154.976562 94.117188 154.78125 97.398438 154.78125 C 97.679688 154.78125 97.824219 154.78125 97.824219 154.78125 C 97.824219 154.78125 107.085938 156.101562 105.6875 163.554688 C 106.175781 159.859375 104.027344 155.386719 93.707031 155.386719 C 91.746094 155.386719 89.496094 155.550781 86.914062 155.90625 C 86.914062 155.90625 80.4375 156.296875 77.828125 158.425781 C 75.21875 160.554688 76.679688 167.984375 80.226562 171.09375 C 81.148438 171.902344 82.957031 172.222656 85.171875 172.226562 C 91.480469 172.226562 101.121094 169.617188 103.324219 168.148438 C 103.757812 167.859375 104.226562 167.324219 104.632812 166.625 C 101.078125 174.019531 81.636719 173.972656 76.882812 175.402344 C 73.277344 176.484375 69.707031 179.078125 67.082031 179.078125 M 72.65625 158.449219 C 72.316406 158.449219 71.871094 159.296875 71.558594 160.832031 C 71.558594 160.832031 70.707031 168.679688 75.382812 171.867188 C 75.660156 172.058594 75.828125 172.148438 75.914062 172.148438 C 76.53125 172.148438 72.519531 167.292969 73.050781 161.542969 C 73.246094 159.414062 73.011719 158.449219 72.65625 158.449219 " fill-opacity="1" fill-rule="nonzero"/><path fill="#ff976d" d="M 81.75 111.820312 C 80.765625 111.808594 79.8125 112.183594 79.117188 112.878906 C 77.921875 114.0625 76.371094 116.230469 76.652344 119.304688 C 77.238281 125.648438 80.875 126.765625 82.902344 127.003906 C 87.664062 127.5625 96.550781 126.78125 97.167969 121.496094 C 97.765625 116.402344 93.792969 111.960938 81.75 111.820312 " fill-opacity="1" fill-rule="nonzero"/><path fill="#ecc8b7" d="M 82.46875 112.386719 C 81.71875 112.382812 80.984375 112.636719 80.402344 113.117188 C 79.117188 114.179688 77.472656 116.316406 77.878906 119.476562 C 78.632812 125.269531 81.886719 126.46875 83.796875 126.761719 C 85.703125 127.054688 96.1875 126.6875 96.773438 121.6875 C 97.34375 116.832031 94.023438 112.476562 82.46875 112.386719 " fill-opacity="1" fill-rule="nonzero"/><path fill="#f4ded4" d="M 23.203125 84.464844 C 23.203125 84.464844 28.707031 85.480469 25.441406 88.746094 C 22.175781 92.015625 21 97.246094 21.628906 100.789062 C 22.609375 106.308594 18.277344 106.808594 18.277344 106.808594 C 18.277344 106.808594 15.140625 104.097656 15.4375 97.265625 C 15.734375 90.433594 21.988281 83.851562 23.203125 84.464844 " fill-opacity="1" fill-rule="nonzero"/><path fill="#f0bda7" d="M 82.261719 150.324219 C 79.1875 150.324219 76.324219 150.132812 74.1875 149.734375 C 66.46875 148.300781 65.0625 138.953125 65.960938 136.632812 C 66.859375 134.3125 71.21875 134.070312 71.21875 134.070312 C 71.21875 134.070312 76.464844 133.207031 83.257812 133.207031 C 86.601562 133.207031 90.320312 133.417969 93.972656 134.039062 C 105.042969 135.925781 104.242188 143.199219 101.6875 146.566406 C 99.839844 149.007812 90.316406 150.324219 82.261719 150.324219 " fill-opacity="1" fill-rule="nonzero"/><path fill="#f5b194" d="M 104.636719 166.625 C 105.175781 165.5 105.515625 164.480469 105.6875 163.554688 C 105.539062 164.707031 105.128906 165.78125 104.636719 166.625 " fill-opacity="1" fill-rule="nonzero"/><path fill="#f0bda7" d="M 85.171875 172.226562 C 82.957031 172.222656 81.152344 171.902344 80.226562 171.09375 C 76.679688 167.984375 75.21875 160.550781 77.828125 158.425781 C 80.4375 156.296875 86.914062 155.90625 86.914062 155.90625 C 89.496094 155.546875 91.75 155.386719 93.707031 155.386719 C 104.027344 155.386719 106.175781 159.859375 105.6875 163.554688 C 105.515625 164.480469 105.175781 165.5 104.632812 166.625 C 104.226562 167.320312 103.757812 167.859375 103.324219 168.148438 C 101.121094 169.617188 91.480469 172.226562 85.171875 172.226562 " fill-opacity="1" fill-rule="nonzero"/><path fill="#fd9c74" d="M 65.707031 148.703125 C 65.628906 148.703125 65.445312 148.554688 65.125 148.242188 C 62.980469 146.152344 62.714844 138.527344 62.714844 138.527344 C 62.503906 136.84375 63.125 135.363281 63.589844 135.363281 C 63.933594 135.363281 64.195312 136.175781 63.964844 138.328125 C 63.363281 144.023438 66.164062 148.703125 65.707031 148.703125 " fill-opacity="1" fill-rule="nonzero"/><path fill="#fd9c74" d="M 57.324219 125.339844 C 57.246094 125.335938 57.085938 125.210938 56.796875 124.949219 C 54.082031 122.453125 54.894531 114.5625 54.894531 114.5625 C 55.167969 111.613281 56.335938 109.742188 56.898438 109.742188 C 57.28125 109.742188 57.390625 110.582031 56.777344 112.503906 C 54.429688 119.882812 57.816406 125.339844 57.324219 125.339844 " fill-opacity="1" fill-rule="nonzero"/><path fill="#fd9c74" d="M 75.914062 172.148438 C 75.832031 172.148438 75.660156 172.058594 75.382812 171.867188 C 70.707031 168.679688 71.558594 160.835938 71.558594 160.835938 C 71.871094 159.296875 72.320312 158.449219 72.65625 158.449219 C 73.011719 158.449219 73.242188 159.414062 73.050781 161.542969 C 72.523438 167.292969 76.53125 172.148438 75.914062 172.148438 " fill-opacity="1" fill-rule="nonzero"/><path fill="#ff976d" d="M 83.65625 134.984375 C 83.65625 134.984375 81.675781 135.675781 81.933594 139.265625 C 82.191406 142.855469 84.5625 146.054688 87.128906 147.027344 C 91.851562 148.820312 100.015625 147.253906 101.558594 144.921875 C 103.789062 141.539062 101.574219 137.171875 98 135.636719 C 94.425781 134.105469 85.199219 133.921875 83.65625 134.984375 " fill-opacity="1" fill-rule="nonzero"/><path fill="#ecc8b7" d="M 84.722656 135.308594 C 84.722656 135.308594 82.789062 135.984375 83.042969 139.484375 C 83.292969 142.988281 85.644531 146.015625 88.109375 147.0625 C 90.574219 148.105469 100.199219 146.945312 101.460938 144.527344 C 102.71875 142.109375 101.730469 137.585938 98.242188 136.09375 C 94.75 134.597656 86.226562 134.269531 84.722656 135.308594 " fill-opacity="1" fill-rule="nonzero"/><path fill="#ff976d" d="M 86.957031 157.585938 C 86.957031 157.585938 85.269531 159.035156 85.996094 162.460938 C 86.722656 165.890625 89.78125 168.394531 92.359375 169.09375 C 94.9375 169.789062 104.382812 167.488281 105.296875 164.929688 C 106.210938 162.367188 104.070312 157.515625 100.421875 156.515625 C 96.769531 155.511719 88.304688 156.351562 86.957031 157.585938 " fill-opacity="1" fill-rule="nonzero"/><path fill="#ecc8b7" d="M 87.769531 157.632812 C 87.769531 157.632812 85.949219 158.5625 86.675781 161.988281 C 87.40625 165.414062 90.140625 168.085938 92.71875 168.78125 C 95.296875 169.476562 104.648438 167.011719 105.5625 164.453125 C 106.476562 161.894531 104.882812 157.5625 101.230469 156.558594 C 97.578125 155.558594 89.113281 156.398438 87.769531 157.632812 " fill-opacity="1" fill-rule="nonzero"/><g clip-path="url(#3415a710bb)"><path fill="#f5e2d9" d="M 150.761719 70.867188 C 150.117188 70.40625 149.496094 69.964844 148.898438 69.542969 C 146.871094 68.117188 144.921875 66.796875 143.039062 65.570312 C 145.578125 67.191406 148.167969 68.960938 150.761719 70.867188 M 52.617188 58.277344 C 58.859375 54.753906 73.648438 54.265625 84.457031 53.339844 C 77.679688 54.339844 70.464844 55.46875 64.488281 56.433594 C 59.496094 57.195312 55.089844 57.878906 52.859375 58.226562 C 52.777344 58.238281 52.695312 58.257812 52.617188 58.277344 M 113.65625 51.636719 C 112.335938 51.328125 111.125 51.109375 110.019531 50.960938 C 111.332031 51.097656 112.503906 51.324219 113.65625 51.636719 " fill-opacity="1" fill-rule="nonzero"/></g><g clip-path="url(#6847a8004a)"><path fill="#ecae8f" d="M 156.015625 74.929688 C 147.628906 68.617188 138.765625 63.222656 131.707031 59.460938 C 119.367188 52.894531 110.710938 51.121094 103.515625 51.121094 C 102.589844 51.121094 101.691406 51.152344 100.808594 51.203125 C 103.25 50.9375 105.257812 50.8125 106.988281 50.8125 C 108.097656 50.8125 109.089844 50.863281 110.019531 50.960938 C 111.125 51.109375 112.335938 51.328125 113.65625 51.636719 C 115.886719 52.234375 118.046875 53.125 121.003906 54.210938 C 126.285156 56.15625 134.339844 60.011719 143.039062 65.574219 C 144.921875 66.796875 146.871094 68.117188 148.898438 69.546875 C 149.496094 69.964844 150.117188 70.40625 150.761719 70.867188 C 152.515625 72.160156 154.273438 73.511719 156.015625 74.929688 M 64.488281 56.433594 C 70.464844 55.472656 77.679688 54.339844 84.457031 53.34375 C 85.300781 53.269531 86.121094 53.195312 86.914062 53.113281 C 82.773438 53.65625 72.820312 55.15625 64.488281 56.433594 " fill-opacity="1" fill-rule="nonzero"/></g><path fill="#f0d4c7" d="M 52.582031 58.402344 C 52.566406 58.339844 52.5625 58.308594 52.5625 58.308594 C 52.582031 58.296875 52.597656 58.289062 52.617188 58.277344 C 52.695312 58.253906 52.777344 58.238281 52.859375 58.226562 C 55.089844 57.878906 59.496094 57.199219 64.488281 56.433594 C 59.117188 57.296875 54.746094 58.023438 52.582031 58.402344 " fill-opacity="1" fill-rule="nonzero"/><path fill="#ecbca4" d="M 172.996094 135.535156 C 172.40625 135.535156 171.804688 135.476562 171.195312 135.359375 C 139.65625 129.351562 123.042969 88.003906 124.289062 80.082031 C 126.449219 66.390625 120.210938 63.375 120.210938 63.375 C 120.210938 63.375 117.625 69.34375 115.878906 69.34375 C 115.253906 69.34375 114.738281 68.574219 114.484375 66.496094 C 113.894531 61.59375 112.300781 59.511719 109.851562 59.511719 C 108.351562 59.511719 106.535156 60.285156 104.429688 61.671875 C 99.25 65.082031 99.136719 71.125 77.839844 71.125 C 76.308594 71.125 74.667969 71.09375 72.914062 71.03125 C 55.511719 70.378906 52.8125 59.527344 52.578125 58.402344 C 54.746094 58.023438 59.117188 57.296875 64.488281 56.433594 C 72.820312 55.15625 82.773438 53.652344 86.910156 53.113281 C 88.585938 52.949219 90.128906 52.757812 91.472656 52.535156 C 95.195312 51.921875 98.242188 51.484375 100.808594 51.203125 C 101.691406 51.152344 102.589844 51.121094 103.515625 51.121094 C 110.707031 51.121094 119.367188 52.894531 131.707031 59.464844 C 138.769531 63.222656 147.628906 68.617188 156.015625 74.929688 C 160.730469 78.769531 165.335938 83.066406 169.5 87.789062 C 191.570312 112.824219 184.753906 135.535156 172.996094 135.535156 " fill-opacity="1" fill-rule="nonzero"/><path fill="#ff976d" d="M 83.09375 53.832031 C 83.09375 53.832031 86.636719 53.808594 83.515625 62.335938 C 81.488281 67.882812 74.796875 66.953125 67.496094 67.351562 C 60.066406 67.761719 48.414062 61.171875 54.042969 57.320312 C 54.042969 57.320312 68.300781 53.492188 83.09375 53.832031 " fill-opacity="1" fill-rule="nonzero"/><path fill="#ecc8b7" d="M 81.5625 53.527344 C 81.5625 53.527344 86.527344 52.425781 82.40625 62.734375 C 80.183594 68.300781 53.382812 68.023438 52.5625 58.308594 C 52.285156 55.035156 81.5625 53.527344 81.5625 53.527344 " fill-opacity="1" fill-rule="nonzero"/><path fill="#965e3d" d="M 52.203125 81.054688 C 52.203125 85.265625 48.789062 88.683594 44.578125 88.683594 C 40.367188 88.683594 36.953125 85.265625 36.953125 81.054688 C 36.953125 76.839844 40.367188 73.425781 44.578125 73.425781 C 48.789062 73.425781 52.203125 76.839844 52.203125 81.054688 " fill-opacity="1" fill-rule="nonzero"/><path fill="#965e3d" d="M 63.617188 93.046875 C 63.617188 97.257812 60.203125 100.675781 55.992188 100.675781 C 51.78125 100.675781 48.367188 97.257812 48.367188 93.046875 C 48.367188 88.832031 51.78125 85.417969 55.992188 85.417969 C 60.203125 85.417969 63.617188 88.832031 63.617188 93.046875 " fill-opacity="1" fill-rule="nonzero"/><path fill="#ad6d41" d="M 62.535156 92.230469 C 62.535156 95.816406 59.628906 98.726562 56.042969 98.726562 C 52.457031 98.726562 49.546875 95.816406 49.546875 92.230469 C 49.546875 88.644531 52.457031 85.734375 56.042969 85.734375 C 59.628906 85.734375 62.535156 88.644531 62.535156 92.230469 " fill-opacity="1" fill-rule="nonzero"/><path fill="#bf8756" d="M 59.253906 90.148438 C 59.253906 92.203125 57.585938 93.875 55.527344 93.875 C 53.46875 93.875 51.804688 92.203125 51.804688 90.148438 C 51.804688 88.089844 53.46875 86.421875 55.527344 86.421875 C 57.585938 86.421875 59.253906 88.089844 59.253906 90.148438 " fill-opacity="1" fill-rule="nonzero"/><path fill="#ad6d41" d="M 50.972656 80.082031 C 50.972656 83.671875 48.066406 86.578125 44.480469 86.578125 C 40.894531 86.578125 37.988281 83.671875 37.988281 80.082031 C 37.988281 76.496094 40.894531 73.585938 44.480469 73.585938 C 48.066406 73.585938 50.972656 76.496094 50.972656 80.082031 " fill-opacity="1" fill-rule="nonzero"/><path fill="#bf8756" d="M 48.414062 77.667969 C 48.414062 79.722656 46.746094 81.390625 44.6875 81.390625 C 42.628906 81.390625 40.960938 79.722656 40.960938 77.667969 C 40.960938 75.609375 42.628906 73.941406 44.6875 73.941406 C 46.746094 73.941406 48.414062 75.609375 48.414062 77.667969 " fill-opacity="1" fill-rule="nonzero"/><path fill="#bf8756" d="M 27.757812 79.296875 C 27.757812 81.355469 26.089844 83.023438 24.03125 83.023438 C 21.972656 83.023438 20.304688 81.355469 20.304688 79.296875 C 20.304688 77.242188 21.972656 75.574219 24.03125 75.574219 C 26.089844 75.574219 27.757812 77.242188 27.757812 79.296875 " fill-opacity="1" fill-rule="nonzero"/><path fill="#ff7354" d="M 51.226562 59.523438 C 51.226562 59.523438 49.164062 74.574219 66.457031 79.007812 C 80.933594 82.722656 98.464844 78.492188 101.507812 78.980469 C 104.554688 79.46875 106.296875 75.691406 107.808594 78.988281 C 109.324219 82.28125 107.488281 85.046875 110.304688 86.722656 C 113.117188 88.402344 112.875 84.730469 115.15625 86.320312 C 117.433594 87.914062 117.8125 97.023438 124.289062 110.214844 C 124.289062 110.214844 117.371094 96.300781 115.625 92.375 C 114.277344 89.355469 108.464844 91.242188 106.273438 86.722656 C 104.527344 83.121094 99.011719 81.3125 96.074219 81.589844 C 93.136719 81.867188 69.953125 84.546875 58.933594 76.898438 C 48.410156 69.597656 51.226562 59.523438 51.226562 59.523438 " fill-opacity="1" fill-rule="nonzero"/><g clip-path="url(#7a2ea3d693)"><path fill="#9db6c6" d="M 243.347656 132.609375 C 243.347656 132.609375 244.816406 126.191406 265.414062 133.417969 C 290.441406 142.195312 350.125 164.792969 375.003906 173.605469 L 375.003906 319.023438 C 375.003906 319.023438 263.394531 261.480469 257.027344 252.988281 C 250.65625 244.496094 258.699219 188.402344 243.347656 132.609375 " fill-opacity="1" fill-rule="nonzero"/></g><path fill="#ad6d41" d="M 54.015625 249.511719 C 54.015625 249.511719 57.539062 242.703125 59.335938 243.558594 C 61.136719 244.417969 62.367188 246.691406 63.097656 247.878906 C 63.824219 249.066406 60.160156 253.480469 59.789062 255.507812 C 59.421875 257.535156 52.894531 251.175781 54.015625 249.511719 " fill-opacity="1" fill-rule="nonzero"/><g clip-path="url(#c2b7ce63f8)"><path fill="#c2d1db" d="M 375.003906 299.007812 C 375.003906 299.007812 265.734375 261.214844 263.394531 236.554688 C 256.132812 160.011719 245.78125 131.4375 245.78125 131.4375 C 246.035156 130.773438 246.96875 130.464844 248.480469 130.464844 C 249.804688 130.464844 251.574219 130.703125 253.722656 131.136719 C 253.148438 131.074219 252.628906 131.039062 252.171875 131.039062 C 250.507812 131.039062 249.671875 131.480469 249.808594 132.441406 C 249.808594 132.441406 258.722656 156.664062 267.921875 210.734375 C 270.710938 227.113281 375.003906 251.832031 375.003906 251.832031 L 375.003906 299.007812 " fill-opacity="1" fill-rule="nonzero"/></g><path fill="#f0bda7" d="M 238.152344 181.125 C 238.152344 181.125 203.132812 164.878906 203.871094 154.066406 C 204.601562 143.257812 197.316406 112.808594 197.316406 112.808594 C 203.480469 119.476562 236.414062 131.5 238.152344 135.535156 C 243.285156 147.445312 238.152344 181.125 238.152344 181.125 " fill-opacity="1" fill-rule="nonzero"/><path fill="#ad6d41" d="M 49.015625 255.902344 C 49.015625 255.902344 55.859375 242.609375 59.4375 248.636719 C 63.015625 254.664062 52.941406 282.226562 50.5 284.308594 C 48.367188 286.125 40.945312 282.808594 40.59375 276.433594 C 40.179688 268.929688 43.289062 267.117188 49.015625 255.902344 " fill-opacity="1" fill-rule="nonzero"/><path fill="#71472e" d="M 40.75 277.941406 C 40.75 277.941406 39.859375 274.960938 43.054688 274.78125 C 46.253906 274.601562 49.714844 281.453125 50.390625 283.246094 C 51.066406 285.042969 48.699219 287.078125 40.75 277.941406 " fill-opacity="1" fill-rule="nonzero"/><path fill="#844f35" d="M 42.652344 271.011719 C 42.652344 271.011719 41.757812 273.132812 44.089844 273.945312 C 46.417969 274.761719 50.339844 279.820312 50.378906 280.148438 C 50.414062 280.472656 52.859375 276.148438 54.980469 269.867188 C 57.097656 263.585938 59.464844 254.601562 57.671875 252.121094 C 57.671875 252.121094 59.03125 253.144531 60.523438 252.121094 C 62.015625 251.097656 62.914062 248.675781 62.605469 247.066406 C 62.605469 247.066406 63.582031 248.148438 63.519531 249.066406 C 63.460938 249.984375 62.175781 253.4375 61.074219 253.761719 C 59.972656 254.082031 60.230469 255.234375 59.335938 260.257812 C 58.445312 265.277344 55.210938 279.65625 50.5 284.308594 L 40.59375 276.433594 C 40.59375 276.433594 39.28125 273.601562 41.402344 268.582031 C 43.523438 263.566406 51.011719 250.160156 54.632812 248.394531 C 54.632812 248.394531 55.25 246.191406 56.878906 244.539062 C 58.507812 242.886719 59.472656 243.515625 60.027344 243.972656 C 60.027344 243.972656 58.199219 243.558594 57.160156 245.332031 C 56.121094 247.109375 55.457031 248.792969 56.125 249.691406 C 56.792969 250.59375 56.792969 250.59375 56.792969 250.59375 C 56.792969 250.59375 54.652344 249.738281 53.183594 250.839844 C 51.71875 251.941406 43.984375 264.257812 42.652344 271.011719 " fill-opacity="1" fill-rule="nonzero"/><path fill="#b5441b" d="M 42.230469 279.257812 C 42.230469 279.257812 37.613281 283.082031 35.738281 292.382812 C 33.859375 301.683594 36.921875 309.960938 39.121094 313.550781 C 39.792969 314.652344 39.300781 306.542969 39.800781 309.269531 C 40.648438 313.917969 43.15625 315.9375 43.460938 320.738281 C 43.71875 324.785156 50.070312 312.9375 48.089844 305.800781 C 46.253906 299.195312 46.5 297.03125 46.5 297.03125 C 46.5 297.03125 47.535156 303.691406 49.824219 306.148438 C 49.824219 306.148438 47.925781 300.644531 49.332031 293.789062 C 50 290.53125 49.824219 286.9375 47.785156 284.734375 C 43.78125 280.410156 44.367188 276.78125 42.230469 279.257812 " fill-opacity="1" fill-rule="nonzero"/><path fill="#f47b50" d="M 42.0625 276.3125 C 42.0625 276.3125 38.183594 279.414062 36.304688 288.710938 C 34.429688 298.011719 37.492188 306.289062 39.6875 309.882812 C 40.363281 310.984375 39.871094 302.871094 40.367188 305.597656 C 41.21875 310.25 43.726562 312.265625 44.03125 317.070312 C 44.289062 321.117188 50.636719 309.265625 48.65625 302.132812 C 46.824219 295.523438 47.070312 293.363281 47.070312 293.363281 C 47.070312 293.363281 48.101562 300.023438 50.390625 302.476562 C 50.390625 302.476562 48.496094 296.972656 49.902344 290.121094 C 50.570312 286.859375 50.074219 283.523438 48.351562 281.0625 C 45.398438 276.84375 43.65625 275.089844 42.0625 276.3125 " fill-opacity="1" fill-rule="nonzero"/><path fill="#f79c7c" d="M 42.488281 278.453125 C 42.488281 278.453125 35.941406 285.296875 37.652344 293.734375 C 39.367188 302.171875 39.242188 304.621094 39.242188 304.621094 C 39.242188 304.621094 40.820312 299.847656 40.582031 297.523438 C 40.582031 297.523438 41.320312 300.335938 41.445312 302.292969 C 41.566406 304.253906 43.15625 306.085938 43.890625 307.921875 C 44.625 309.757812 44.867188 315.511719 44.867188 315.511719 C 44.867188 315.511719 46.949219 310.125 46.824219 305.109375 C 46.703125 300.09375 45.980469 294.097656 46.832031 291.648438 C 47.683594 289.203125 48.09375 294.628906 48.890625 296.980469 C 48.890625 296.980469 48.597656 290.320312 49.394531 287.976562 C 50.191406 285.636719 43.53125 276.144531 42.488281 278.453125 " fill-opacity="1" fill-rule="nonzero"/><path fill="#f9bda7" d="M 42.488281 280.878906 C 42.488281 280.878906 38.140625 283.585938 39.367188 293.734375 C 39.367188 293.734375 40.34375 288.46875 41.6875 286.753906 C 43.035156 285.042969 44.902344 279.996094 42.488281 280.878906 " fill-opacity="1" fill-rule="nonzero"/><path fill="#f9bda7" d="M 44.992188 283.941406 C 44.992188 283.941406 41.488281 293.117188 43.054688 298.746094 C 44.625 304.375 44.992188 310.617188 44.992188 310.617188 C 44.992188 310.617188 45.726562 305.355469 44.992188 299.234375 C 44.257812 293.117188 46.828125 287.710938 47.191406 285.285156 C 47.554688 282.863281 45.683594 281.871094 44.992188 283.941406 " fill-opacity="1" fill-rule="nonzero"/><path fill="#bf8756" d="M 45.652344 270.929688 C 45.652344 270.929688 49.09375 260.160156 51.734375 254.941406 C 54.375 249.71875 56.800781 249.636719 55.953125 254.941406 C 55.109375 260.242188 49.519531 274.109375 48.238281 274.273438 C 46.957031 274.4375 45.136719 272.496094 45.652344 270.929688 " fill-opacity="1" fill-rule="nonzero"/><path fill="#bf8756" d="M 58.28125 249.507812 C 58.28125 249.507812 57.828125 243.925781 59.339844 244.984375 C 60.851562 246.046875 61.667969 247.230469 61.828125 248.394531 C 61.992188 249.554688 60.109375 251.910156 58.28125 249.507812 " fill-opacity="1" fill-rule="nonzero"/><path fill="#ebf0f3" d="M 311.175781 150.128906 C 302.851562 147.046875 294.71875 144.039062 287.328125 141.328125 C 294.644531 143.960938 302.699219 146.953125 311.175781 150.128906 " fill-opacity="1" fill-rule="nonzero"/><g clip-path="url(#b84ed3e0ac)"><path fill="#cedae2" d="M 375.003906 173.605469 C 347.386719 165.277344 277.453125 135.953125 253.722656 131.136719 C 259.652344 131.796875 271.84375 135.757812 287.324219 141.328125 C 294.71875 144.039062 302.851562 147.046875 311.175781 150.128906 C 331.472656 157.730469 354.1875 166.375 375.003906 173.605469 " fill-opacity="1" fill-rule="nonzero"/></g><g clip-path="url(#49a798844f)"><path fill="#d9e2e8" d="M 375.003906 251.832031 C 375.003906 251.832031 270.710938 227.113281 267.921875 210.734375 C 258.722656 156.664062 249.808594 132.441406 249.808594 132.441406 C 249.671875 131.480469 250.507812 131.039062 252.171875 131.039062 C 252.628906 131.039062 253.148438 131.074219 253.722656 131.136719 C 277.453125 135.953125 347.386719 165.277344 375.003906 173.605469 L 375.003906 251.832031 " fill-opacity="1" fill-rule="nonzero"/></g></svg>